{
  "accessors": [
    {
      "bufferView": 2,
      "componentType": 5126,
      "count": 1561,
      "max": [
        0.9294760227203369,
        0.22125400602817535,
        2.0243079662323
      ],
      "min": [
        -0.9294689893722534,
        -0.28490400314331055,
        -0.0006500000017695129
      ],
      "type": "VEC3"
    },
    {
      "bufferView": 2,
      "byteOffset": 18732,
      "componentType": 5126,
      "count": 1561,
      "max": [
        0.9990790486335754,
        0.9999440312385559,
        0.9999664425849915
      ],
      "min": [
        -0.999891459941864,
        -0.9994385838508606,
        -0.9999997615814209
      ],
      "type": "VEC3"
    },
    {
      "bufferView": 1,
      "componentType": 5126,
      "count": 1561,
      "max": [
        0.9978700280189514,
        1.0000499486923218
      ],
      "min": [
        0.0,
        0.0
      ],
      "type": "VEC2"
    },
    {
      "bufferView": 0,
      "componentType": 5125,
      "count": 4704,
      "type": "SCALAR"
    }
  ],
  "asset": {
    "extras": {
      "author": "Tigerar1 (https://sketchfab.com/allanromanreyes)",
      "license": "SKETCHFAB Standard (https://sketchfab.com/licenses)",
      "source": "https://sketchfab.com/3d-models/barc-speeder-and-trooper-91e66a1da43142cd89e4e53ca75fca08",
      "title": "BARC Speeder and Trooper"
    },
    "generator": "Sketchfab-16.12.0",
    "version": "2.0"
  },
  "bufferViews": [
    {
      "buffer": 0,
      "byteLength": 18816,
      "name": "floatBufferViews",
      "target": 34963
    },
    {
      "buffer": 0,
      "byteLength": 12488,
      "byteOffset": 18816,
      "byteStride": 8,
      "name": "floatBufferViews",
      "target": 34962
    },
    {
      "buffer": 0,
      "byteLength": 37464,
      "byteOffset": 31304,
      "byteStride": 12,
      "name": "floatBufferViews",
      "target": 34962
    }
  ],
  "buffers": [
    {
      "byteLength": 68768,
      "uri": "scene.bin"
    }
  ],
  "images": [
    {
      "uri": "textures/Shape_baseColor.png"
    }
  ],
  "materials": [
    {
      "doubleSided": true,
      "name": "Shape",
      "pbrMetallicRoughness": {
        "baseColorTexture": {
          "index": 0
        },
        "metallicFactor": 0.0
      }
    }
  ],
  "meshes": [
    {
      "name": "Object_0",
      "primitives": [
        {
          "attributes": {
            "NORMAL": 1,
            "POSITION": 0,
            "TEXCOORD_0": 2
          },
          "indices": 3,
          "material": 0,
          "mode": 4
        }
      ]
    }
  ],
  "nodes": [
    {
      "children": [
        1
      ],
      "matrix": [
        1.0,
        0.0,
        0.0,
        0.0,
        0.0,
        2.220446049250313e-16,
        -1.0,
        0.0,
        0.0,
        1.0,
        2.220446049250313e-16,
        0.0,
        0.0,
        0.0,
        0.0,
        1.0
      ],
      "name": "Sketchfab_model"
    },
    {
      "children": [
        2
      ],
      "name": "rep_inf_feluciatrooper.obj.cleaner.materialmerger.gles"
    },
    {
      "mesh": 0,
      "name": "Object_2"
    }
  ],
  "samplers": [
    {
      "magFilter": 9729,
      "minFilter": 9987,
      "wrapS": 10497,
      "wrapT": 10497
    }
  ],
  "scene": 0,
  "scenes": [
    {
      "name": "Sketchfab_Scene",
      "nodes": [
        0
      ]
    }
  ],
  "textures": [
    {
      "sampler": 0,
      "source": 0
    }
  ]
}
