{
  "accessors": [
    {
      "bufferView": 2,
      "componentType": 5126,
      "count": 2910,
      "max": [
        0.02809394709765911,
        0.2046315222978592,
        0.041785091161727905
      ],
      "min": [
        -0.02911091409623623,
        -0.2044588029384613,
        -0.0621001273393631
      ],
      "type": "VEC3"
    },
    {
      "bufferView": 2,
      "byteOffset": 34920,
      "componentType": 5126,
      "count": 2910,
      "max": [
        1.0,
        1.0,
        1.0
      ],
      "min": [
        -1.0,
        -1.0,
        -1.0
      ],
      "type": "VEC3"
    },
    {
      "bufferView": 3,
      "componentType": 5126,
      "count": 2910,
      "max": [
        1.0,
        1.0,
        1.0,
        1.0
      ],
      "min": [
        -1.0,
        -1.0,
        -1.0,
        -1.0
      ],
      "type": "VEC4"
    },
    {
      "bufferView": 1,
      "componentType": 5126,
      "count": 2910,
      "max": [
        0.9985028505325317,
        0.9985015988349915
      ],
      "min": [
        0.0014914881903678179,
        0.007976174354553223
      ],
      "type": "VEC2"
    },
    {
      "bufferView": 1,
      "byteOffset": 23280,
      "componentType": 5126,
      "count": 2910,
      "max": [
        0.9985028505325317,
        0.9985015988349915
      ],
      "min": [
        0.0014914881903678179,
        0.007976174354553223
      ],
      "type": "VEC2"
    },
    {
      "bufferView": 1,
      "byteOffset": 46560,
      "componentType": 5126,
      "count": 2910,
      "max": [
        0.9985028505325317,
        0.9985015988349915
      ],
      "min": [
        0.0014914881903678179,
        0.007976174354553223
      ],
      "type": "VEC2"
    },
    {
      "bufferView": 1,
      "byteOffset": 69840,
      "componentType": 5126,
      "count": 2910,
      "max": [
        0.9985028505325317,
        0.9985015988349915
      ],
      "min": [
        0.0014914881903678179,
        0.007976174354553223
      ],
      "type": "VEC2"
    },
    {
      "bufferView": 0,
      "componentType": 5125,
      "count": 9054,
      "type": "SCALAR"
    }
  ],
  "asset": {
    "extras": {
      "author": "tegnemaskin (https://sketchfab.com/tegnemaskin)",
      "license": "SKETCHFAB Standard (https://sketchfab.com/licenses)",
      "source": "https://sketchfab.com/3d-models/star-wars-jawa-ion-blaster-8c937952097240a2b26f2b8bdaf47658",
      "title": "Star Wars Jawa Ion Blaster"
    },
    "generator": "Sketchfab-16.11.0",
    "version": "2.0"
  },
  "bufferViews": [
    {
      "buffer": 0,
      "byteLength": 36216,
      "name": "floatBufferViews",
      "target": 34963
    },
    {
      "buffer": 0,
      "byteLength": 93120,
      "byteOffset": 36216,
      "byteStride": 8,
      "name": "floatBufferViews",
      "target": 34962
    },
    {
      "buffer": 0,
      "byteLength": 69840,
      "byteOffset": 129336,
      "byteStride": 12,
      "name": "floatBufferViews",
      "target": 34962
    },
    {
      "buffer": 0,
      "byteLength": 46560,
      "byteOffset": 199176,
      "byteStride": 16,
      "name": "floatBufferViews",
      "target": 34962
    }
  ],
  "buffers": [
    {
      "byteLength": 245736,
      "uri": "scene.bin"
    }
  ],
  "images": [
    {
      "uri": "textures/atlas-jawa-ionblaster_Baked.001_baseColor.jpeg"
    },
    {
      "uri": "textures/atlas-jawa-ionblaster_Baked.001_metallicRoughness.png"
    },
    {
      "uri": "textures/atlas-jawa-ionblaster_Baked.001_normal.png"
    }
  ],
  "materials": [
    {
      "doubleSided": true,
      "name": "atlas-jawa-ionblaster_Baked.001",
      "normalTexture": {
        "index": 2,
        "texCoord": 2
      },
      "pbrMetallicRoughness": {
        "baseColorTexture": {
          "index": 0
        },
        "metallicRoughnessTexture": {
          "index": 1,
          "texCoord": 1
        }
      }
    }
  ],
  "meshes": [
    {
      "name": "Object_0",
      "primitives": [
        {
          "attributes": {
            "NORMAL": 1,
            "POSITION": 0,
            "TANGENT": 2,
            "TEXCOORD_0": 3,
            "TEXCOORD_1": 4,
            "TEXCOORD_2": 5,
            "TEXCOORD_3": 6
          },
          "indices": 7,
          "material": 0,
          "mode": 4
        }
      ]
    }
  ],
  "nodes": [
    {
      "children": [
        1
      ],
      "matrix": [
        1.0,
        0.0,
        0.0,
        0.0,
        0.0,
        2.220446049250313e-16,
        -1.0,
        0.0,
        0.0,
        1.0,
        2.220446049250313e-16,
        0.0,
        0.0,
        0.0,
        0.0,
        1.0
      ],
      "name": "Sketchfab_model"
    },
    {
      "children": [
        2
      ],
      "name": "root"
    },
    {
      "children": [
        3
      ],
      "matrix": [
        1.0,
        0.0,
        0.0,
        0.0,
        0.0,
        2.220446049250313e-16,
        1.0,
        0.0,
        0.0,
        -1.0,
        2.220446049250313e-16,
        0.0,
        0.0,
        0.0,
        0.0,
        1.0
      ],
      "name": "GLTF_SceneRootNode"
    },
    {
      "children": [
        4
      ],
      "matrix": [
        0.9488887190818787,
        0.0,
        0.0,
        0.0,
        0.0,
        0.0,
        -0.9488886594772339,
        0.0,
        0.0,
        0.9488887786865234,
        0.0,
        0.0,
        0.4115900695323944,
        0.5593343377113342,
        0.12780241668224335,
        1.0
      ],
      "name": "ionblaster_Baked.001_0"
    },
    {
      "mesh": 0,
      "name": "Object_4"
    }
  ],
  "samplers": [
    {
      "magFilter": 9729,
      "minFilter": 9987,
      "wrapS": 10497,
      "wrapT": 10497
    }
  ],
  "scene": 0,
  "scenes": [
    {
      "name": "Sketchfab_Scene",
      "nodes": [
        0
      ]
    }
  ],
  "textures": [
    {
      "sampler": 0,
      "source": 0
    },
    {
      "sampler": 0,
      "source": 1
    },
    {
      "sampler": 0,
      "source": 2
    }
  ]
}
